<svg xmlns="http://www.w3.org/2000/svg" width="128" height="128" viewBox="0 0 128 128"><defs><style>.a{fill:#1e1e1e;}.b{fill:#d4d4d4;}</style></defs><title>icon</title><circle class="a" cx="64" cy="64" r="64"/><path class="b" d="M88.72,69.12H104.3v3h-12v7.77h11.5v3H92.27v9.51h12.36v3H88.72Z"/><path class="b" d="M66.61,69.12h7.66c2.92,0,5.13.67,6.66,2A7.46,7.46,0,0,1,83.2,77,7.4,7.4,0,0,1,81,82.83c-1.48,1.32-3.71,2-6.68,2H70.16V95.36H66.61Zm7.66,12.78a5.41,5.41,0,0,0,3.85-1.3,5.51,5.51,0,0,0,0-7.28A5.33,5.33,0,0,0,74.27,72H70.16v9.86Z"/><path class="b" d="M50.95,83.58,42.56,69.12h3.78l6.4,11.58,6.38-11.58h3.81L54.52,83.58V95.36H50.95Z"/><path class="b" d="M20.08,64.24v36h22v-36Zm21,7.87H32.88V95.36H29.31V72.1H21.07v-3h20Z"/><path class="b" d="M87.6,33.12h7.49q5.06,0,7.28,1.79c1.48,1.2,2.2,3.2,2.2,5.75a6.44,6.44,0,0,1-1.32,4.39A5.5,5.5,0,0,1,99.45,47a2.8,2.8,0,0,1,1.35.72,9,9,0,0,1,1.39,2.23l4.75,9.44h-5.7l-3.16-6.63L97.71,52c-1-2-2-3-3.27-3H92.78V59.36H87.6Zm7.63,11.51a4.48,4.48,0,0,0,3.06-.84A3.47,3.47,0,0,0,99.2,41a3.51,3.51,0,0,0-.91-2.74,4.58,4.58,0,0,0-3.06-.83H92.78v7.15Z"/><path class="b" d="M66.54,33.12H82.89v4.57H71.73v5.66H81.83v4.57H71.73v6.87H82.89v4.57H66.54Z"/><path class="b" d="M42.92,33.12h5.22L52.74,55l4.62-21.92h5.22L56.34,59.36H49.16Z"/><path class="b" d="M24.19,56.44Q21.85,53,21.86,46.26c0-4.48.77-7.86,2.34-10.2a7.8,7.8,0,0,1,6.87-3.43A7.83,7.83,0,0,1,38,36.09q2.32,3.45,2.32,10.18c0,4.48-.77,7.86-2.32,10.16a7.76,7.76,0,0,1-6.91,3.45A7.72,7.72,0,0,1,24.19,56.44ZM34,53.08a18.32,18.32,0,0,0,.91-6.84A18.27,18.27,0,0,0,34,39.43a3,3,0,0,0-2.92-2.13,3,3,0,0,0-2.9,2.13,18.27,18.27,0,0,0-.91,6.82,18.32,18.32,0,0,0,.91,6.84,3.05,3.05,0,0,0,5.82,0Z"/></svg>